<?xml version="1.0" encoding="UTF-8" standalone="no"?>
<svg
   xmlns:dc="http://purl.org/dc/elements/1.1/"
   xmlns:cc="http://creativecommons.org/ns#"
   xmlns:rdf="http://www.w3.org/1999/02/22-rdf-syntax-ns#"
   xmlns:svg="http://www.w3.org/2000/svg"
   xmlns="http://www.w3.org/2000/svg"
   xmlns:sodipodi="http://sodipodi.sourceforge.net/DTD/sodipodi-0.dtd"
   xmlns:inkscape="http://www.inkscape.org/namespaces/inkscape"
   width="40"
   height="40"
   viewBox="0 0 40 40"
   version="1.1"
   id="svg30"
   sodipodi:docname="pluginIcon_dark.svg"
   inkscape:version="1.0.2 (e86c870879, 2021-01-15)">
  <metadata
     id="metadata36">
    <rdf:RDF>
      <cc:Work
         rdf:about="">
        <dc:format>image/svg+xml</dc:format>
        <dc:type
           rdf:resource="http://purl.org/dc/dcmitype/StillImage" />
        <dc:title></dc:title>
      </cc:Work>
    </rdf:RDF>
  </metadata>
  <defs
     id="defs34">
    <inkscape:path-effect
       effect="powerclip"
       id="path-effect972"
       is_visible="true"
       lpeversion="1"
       inverse="true"
       flatten="false"
       hide_clip="false"
       message="Jeśli po konwersji przycięcia na ścieżki nie zostanie spłaszczony wynik, użyj reguły wypełniania w oknie dialogowym &lt;b&gt;wypełnienie i obrys&lt;/b&gt; ." />
    <inkscape:path-effect
       effect="powerclip"
       id="path-effect103"
       is_visible="true"
       lpeversion="1"
       inverse="true"
       flatten="false"
       hide_clip="false"
       message="Jeśli po konwersji przycięcia na ścieżki nie zostanie spłaszczony wynik, użyj reguły wypełniania w oknie dialogowym &lt;b&gt;wypełnienie i obrys&lt;/b&gt; ." />
    <clipPath
       clipPathUnits="userSpaceOnUse"
       id="clipPath99">
      <path
         fill="#40b6e0"
         d="m 5.110976,7.82012 -7.66546,38.298865 h 10.52361 l 4.783467,-25.645378 c 0,0 4.145665,-3.616651 7.334637,-3.287863 3.188972,0.328766 3.188972,3.645095 3.188972,3.645095 l -4.464562,25.31659 h 10.528439 l 5.097528,-25.673822 c 0,0 3.50787,-3.616651 7.01574,-3.287863 3.507869,0.328766 2.870082,3.973881 2.870082,3.973881 l -4.783466,24.95936 H 50.382477 L 55.803731,16.885394 C 56.441538,12.253938 53.707855,8.245982 50.063579,7.82012 46.419301,7.394254 42.728935,8.3085 39.539963,10.309658 c -3.188973,2.001163 -5.102356,4.603017 -5.102356,4.603017 0,0 -1.64579,-6.666693 -6.696843,-7.092555 -5.051053,-0.425866 -7.334637,0.817161 -9.566917,2.132313 -2.232282,1.315146 -3.507872,2.987523 -3.507872,2.987523 L 15.544527,7.82012 Z"
         id="path101"
         style="display:block;stroke-width:6.40497" />
    </clipPath>
    <clipPath
       clipPathUnits="userSpaceOnUse"
       id="clipPath99-7">
      <path
         fill="#40b6e0"
         d="m 5.110976,7.82012 -7.66546,38.298865 h 10.52361 l 4.783467,-25.645378 c 0,0 4.145665,-3.616651 7.334637,-3.287863 3.188972,0.328766 3.188972,3.645095 3.188972,3.645095 l -4.464562,25.31659 h 10.528439 l 5.097528,-25.673822 c 0,0 3.50787,-3.616651 7.01574,-3.287863 3.507869,0.328766 2.870082,3.973881 2.870082,3.973881 l -4.783466,24.95936 H 50.382477 L 55.803731,16.885394 C 56.441538,12.253938 53.707855,8.245982 50.063579,7.82012 46.419301,7.394254 42.728935,8.3085 39.539963,10.309658 c -3.188973,2.001163 -5.102356,4.603017 -5.102356,4.603017 0,0 -1.64579,-6.666693 -6.696843,-7.092555 -5.051053,-0.425866 -7.334637,0.817161 -9.566917,2.132313 -2.232282,1.315146 -3.507872,2.987523 -3.507872,2.987523 L 15.544527,7.82012 Z"
         id="path101-1"
         style="display:none;stroke-width:6.40497" />
      <path
         id="lpe_path-effect103-8"
         style="stroke-width:6.40497"
         class="powerclip"
         d="M -12.465855,-16.246786 H 23.491177 V 22.91337 H -12.465855 Z M 5.110976,7.82012 -2.554484,46.118985 h 10.52361 l 4.783467,-25.645378 c 0,0 4.145665,-3.616651 7.334637,-3.287863 3.188972,0.328766 3.188972,3.645095 3.188972,3.645095 l -4.464562,25.31659 h 10.528439 l 5.097528,-25.673822 c 0,0 3.50787,-3.616651 7.01574,-3.287863 3.507869,0.328766 2.870082,3.973881 2.870082,3.973881 l -4.783466,24.95936 H 50.382477 L 55.803731,16.885394 C 56.441538,12.253938 53.707855,8.245982 50.063579,7.82012 46.419301,7.394254 42.728935,8.3085 39.539963,10.309658 c -3.188973,2.001163 -5.102356,4.603017 -5.102356,4.603017 0,0 -1.64579,-6.666693 -6.696843,-7.092555 -5.051053,-0.425866 -7.334637,0.817161 -9.566917,2.132313 -2.232282,1.315146 -3.507872,2.987523 -3.507872,2.987523 L 15.544527,7.82012 Z" />
    </clipPath>
    <clipPath
       clipPathUnits="userSpaceOnUse"
       id="clipath_lpe_path-effect972">
      <path
         fill="#40b6e0"
         d="m 5.110976,7.82012 -7.66546,38.298865 h 10.52361 l 4.783467,-25.645378 c 0,0 4.145665,-3.616651 7.334637,-3.287863 3.188972,0.328766 3.188972,3.645095 3.188972,3.645095 l -4.464562,25.31659 h 10.528439 l 5.097528,-25.673822 c 0,0 3.50787,-3.616651 7.01574,-3.287863 3.507869,0.328766 2.870082,3.973881 2.870082,3.973881 l -4.783466,24.95936 H 50.382477 L 55.803731,16.885394 C 56.441538,12.253938 53.707855,8.245982 50.063579,7.82012 46.419301,7.394254 42.728935,8.3085 39.539963,10.309658 c -3.188973,2.001163 -5.102356,4.603017 -5.102356,4.603017 0,0 -1.64579,-6.666693 -6.696843,-7.092555 -5.051053,-0.425866 -7.334637,0.817161 -9.566917,2.132313 -2.232282,1.315146 -3.507872,2.987523 -3.507872,2.987523 L 15.544527,7.82012 Z"
         id="path974"
         style="display:none;stroke-width:6.40497" />
      <path
         id="lpe_path-effect972"
         style="stroke-width:6.40497"
         class="powerclip"
         d="M -12.465855,-16.246786 H 23.491177 V 22.913386 H -12.465855 Z M 5.110976,7.82012 -2.554484,46.118985 h 10.52361 l 4.783467,-25.645378 c 0,0 4.145665,-3.616651 7.334637,-3.287863 3.188972,0.328766 3.188972,3.645095 3.188972,3.645095 l -4.464562,25.31659 h 10.528439 l 5.097528,-25.673822 c 0,0 3.50787,-3.616651 7.01574,-3.287863 3.507869,0.328766 2.870082,3.973881 2.870082,3.973881 l -4.783466,24.95936 H 50.382477 L 55.803731,16.885394 C 56.441538,12.253938 53.707855,8.245982 50.063579,7.82012 46.419301,7.394254 42.728935,8.3085 39.539963,10.309658 c -3.188973,2.001163 -5.102356,4.603017 -5.102356,4.603017 0,0 -1.64579,-6.666693 -6.696843,-7.092555 -5.051053,-0.425866 -7.334637,0.817161 -9.566917,2.132313 -2.232282,1.315146 -3.507872,2.987523 -3.507872,2.987523 L 15.544527,7.82012 Z" />
    </clipPath>
  </defs>
  <sodipodi:namedview
     pagecolor="#ffffff"
     bordercolor="#666666"
     borderopacity="1"
     objecttolerance="10"
     gridtolerance="10"
     guidetolerance="10"
     inkscape:pageopacity="0"
     inkscape:pageshadow="2"
     inkscape:window-width="2560"
     inkscape:window-height="1334"
     id="namedview32"
     showgrid="false"
     inkscape:zoom="22.627417"
     inkscape:cx="21.671751"
     inkscape:cy="21.862851"
     inkscape:window-x="-9"
     inkscape:window-y="-9"
     inkscape:window-maximized="1"
     inkscape:current-layer="g28"
     inkscape:document-rotation="0" />
  <g
     fill="none"
     fill-rule="evenodd"
     id="g28"
     transform="translate(12.570787,15.12984)">
    <text
       xml:space="preserve"
       style="font-style:normal;font-weight:normal;font-size:40px;line-height:1.25;font-family:sans-serif;fill:#000000;fill-opacity:1;stroke:none"
       x="-6.4649758"
       y="1.4815568"
       id="text40"><tspan
         sodipodi:role="line"
         id="tspan38"
         x="-6.4649758"
         y="1.4815568" /></text>
    <path
       fill="#40b6e0"
       d="M 5.402033,7.3089583 2.2047514,23.283508 H 6.5941745 L 8.5893699,12.586759 c 0,0 1.7291671,-1.508515 3.0592971,-1.371376 1.330127,0.137129 1.330127,1.520378 1.330127,1.520378 l -1.86218,10.559611 h 4.391438 l 2.126191,-10.708613 c 0,0 1.463141,-1.508515 2.926283,-1.371376 1.463141,0.137129 1.197117,1.657516 1.197117,1.657516 l -1.995195,10.410609 h 4.52244 L 26.546105,11.090106 C 26.812136,9.1583152 25.67191,7.4865872 24.151874,7.3089583 22.631836,7.1313288 21.092576,7.5126634 19.762448,8.3473514 c -1.330129,0.834689 -2.128205,1.9199296 -2.128205,1.9199296 0,0 -0.686462,-2.7806938 -2.793269,-2.9583227 C 12.734167,7.1313288 11.781678,7.6497981 10.850588,8.1983518 9.9194982,8.7469019 9.3874463,9.4444552 9.3874463,9.4444552 l 0.366447,-2.1354969 z"
       id="path26"
       style="stroke-width:2.67153" />
    <g
       aria-label="E"
       id="text44-3"
       style="font-style:normal;font-weight:normal;font-size:40px;line-height:1.25;font-family:sans-serif;fill:#afb1b3;fill-opacity:1;stroke:none"
       clip-path="url(#clipath_lpe_path-effect972)"
       inkscape:path-effect="#path-effect972"
       transform="matrix(1.0477283,0,0,1.0477283,-1.6533086,-0.10477653)">
      <path
         d="M -1.7822609,-11.246786 H 18.491177 l -1.113282,5.6835936 H 4.6239891 L 3.5693016,-0.13350487 H 15.58102 L 14.448208,5.5500889 H 2.4560204 l -1.2890625,6.6796871 3.0625319,0.007 -1.1397738,5.67661 H -7.4658546 Z"
         style="font-style:italic;font-variant:normal;font-weight:bold;font-stretch:normal;font-size:40px;font-family:sans-serif;-inkscape-font-specification:'sans-serif, Bold Italic';font-variant-ligatures:normal;font-variant-caps:normal;font-variant-numeric:normal;font-variant-east-asian:normal;fill:#afb1b3;fill-opacity:1"
         id="path76-5"
         inkscape:original-d="M -1.7822609,-11.246786 H 18.491177 l -1.113282,5.6835936 H 4.6239891 L 3.5693016,-0.13350487 H 15.58102 L 14.448208,5.5500889 H 2.4560204 l -1.2890625,6.6796871 3.0625319,0.007 -1.1397738,5.67661 H -7.4658546 Z"
         sodipodi:nodetypes="ccccccccccccc" />
    </g>
  </g>
</svg>
